<svg width="318" height="287" viewBox="0 0 318 287" fill="none" xmlns="http://www.w3.org/2000/svg">
<g filter="url(#filter0_b_76_2)">
<path d="M316 190.667C316 199.006 312.324 207.004 305.781 212.901C299.238 218.798 290.364 222.111 281.111 222.111H71.7778L2 285V33.4444C2 25.1049 5.67578 17.1068 12.2187 11.2099C18.7617 5.31289 27.6358 2 36.8889 2H281.111C290.364 2 299.238 5.31289 305.781 11.2099C312.324 17.1068 316 25.1049 316 33.4444V190.667Z" fill="#1162E0"/>
<path d="M1 285C1 285.395 1.23256 285.753 1.59348 285.914C1.95441 286.074 2.37604 286.007 2.66949 285.743L4.12321 284.433C4.53346 284.063 4.56629 283.431 4.19654 283.02L5.6183 281.739C5.98805 282.149 6.62036 282.182 7.03061 281.812L9.93802 279.192C10.3483 278.822 10.3811 278.19 10.0114 277.78L11.4331 276.498C11.8029 276.908 12.4352 276.941 12.8454 276.572L15.7528 273.951C16.1631 273.581 16.1959 272.949 15.8262 272.539L17.2479 271.257C17.6177 271.668 18.25 271.701 18.6602 271.331L21.5676 268.71C21.9779 268.341 22.0107 267.708 21.641 267.298L23.0627 266.017C23.4325 266.427 24.0648 266.46 24.4751 266.09L27.3825 263.47C27.7927 263.1 27.8255 262.468 27.4558 262.057L28.8776 260.776C29.2473 261.186 29.8796 261.219 30.2899 260.849L33.1973 258.229C33.6075 257.859 33.6404 257.227 33.2706 256.817L34.6924 255.535C35.0621 255.945 35.6944 255.978 36.1047 255.609L39.0121 252.988C39.4223 252.618 39.4552 251.986 39.0854 251.576L40.5072 250.294C40.8769 250.705 41.5092 250.738 41.9195 250.368L44.8269 247.747C45.2371 247.378 45.27 246.745 44.9002 246.335L46.322 245.054C46.6917 245.464 47.3241 245.497 47.7343 245.127L50.6417 242.507C51.052 242.137 51.0848 241.505 50.715 241.094L52.1368 239.813C52.5066 240.223 53.1389 240.256 53.5491 239.886L56.4565 237.266C56.8668 236.896 56.8996 236.264 56.5299 235.854L57.9516 234.572C58.3214 234.983 58.9537 235.015 59.3639 234.646L62.2713 232.025C62.6816 231.655 62.7144 231.023 62.3447 230.613L63.7664 229.332C64.1362 229.742 64.7685 229.775 65.1787 229.405L68.0862 226.785C68.4964 226.415 68.5292 225.782 68.1595 225.372L69.5813 224.091C69.951 224.501 70.5833 224.534 70.9936 224.164L72.1619 223.111H73.7907C74.343 223.111 74.7907 222.663 74.7907 222.111H76.8163C76.8163 222.663 77.264 223.111 77.8163 223.111H81.842C82.3942 223.111 82.842 222.663 82.842 222.111H84.8676C84.8676 222.663 85.3153 223.111 85.8676 223.111H89.8932C90.4455 223.111 90.8932 222.663 90.8932 222.111H92.9189C92.9189 222.663 93.3666 223.111 93.9189 223.111H97.9445C98.4968 223.111 98.9445 222.663 98.9445 222.111H100.97C100.97 222.663 101.418 223.111 101.97 223.111H105.996C106.548 223.111 106.996 222.663 106.996 222.111H109.021C109.021 222.663 109.469 223.111 110.021 223.111H114.047C114.599 223.111 115.047 222.663 115.047 222.111H117.073C117.073 222.663 117.52 223.111 118.073 223.111H122.098C122.651 223.111 123.098 222.663 123.098 222.111H125.124C125.124 222.663 125.572 223.111 126.124 223.111H130.15C130.702 223.111 131.15 222.663 131.15 222.111H133.175C133.175 222.663 133.623 223.111 134.175 223.111H138.201C138.753 223.111 139.201 222.663 139.201 222.111H141.226C141.226 222.663 141.674 223.111 142.226 223.111H146.252C146.804 223.111 147.252 222.663 147.252 222.111H149.278C149.278 222.663 149.725 223.111 150.278 223.111H154.303C154.856 223.111 155.303 222.663 155.303 222.111H157.329C157.329 222.663 157.777 223.111 158.329 223.111H162.355C162.907 223.111 163.355 222.663 163.355 222.111H165.38C165.38 222.663 165.828 223.111 166.38 223.111H170.406C170.958 223.111 171.406 222.663 171.406 222.111H173.432C173.432 222.663 173.879 223.111 174.432 223.111H178.457C179.01 223.111 179.457 222.663 179.457 222.111H181.483C181.483 222.663 181.931 223.111 182.483 223.111H186.509C187.061 223.111 187.509 222.663 187.509 222.111H189.534C189.534 222.663 189.982 223.111 190.534 223.111H194.56C195.112 223.111 195.56 222.663 195.56 222.111H197.585C197.585 222.663 198.033 223.111 198.585 223.111H202.611C203.163 223.111 203.611 222.663 203.611 222.111H205.637C205.637 222.663 206.084 223.111 206.637 223.111H210.662C211.215 223.111 211.662 222.663 211.662 222.111H213.688C213.688 222.663 214.136 223.111 214.688 223.111H218.714C219.266 223.111 219.714 222.663 219.714 222.111H221.739C221.739 222.663 222.187 223.111 222.739 223.111H226.765C227.317 223.111 227.765 222.663 227.765 222.111H229.791C229.791 222.663 230.238 223.111 230.791 223.111H234.816C235.369 223.111 235.816 222.663 235.816 222.111H237.842C237.842 222.663 238.29 223.111 238.842 223.111H242.868C243.42 223.111 243.868 222.663 243.868 222.111H245.893C245.893 222.663 246.341 223.111 246.893 223.111H250.919C251.471 223.111 251.919 222.663 251.919 222.111H253.944C253.944 222.663 254.392 223.111 254.944 223.111H258.97C259.522 223.111 259.97 222.663 259.97 222.111H261.996C261.996 222.663 262.443 223.111 262.996 223.111H267.021C267.574 223.111 268.021 222.663 268.021 222.111H270.047C270.047 222.663 270.495 223.111 271.047 223.111H275.073C275.625 223.111 276.073 222.663 276.073 222.111H278.098C278.098 222.663 278.546 223.111 279.098 223.111H281.111C281.881 223.111 282.648 223.089 283.412 223.044C283.963 223.012 284.384 222.54 284.352 221.988C284.352 221.984 284.352 221.98 284.352 221.975C285.181 221.906 286.005 221.809 286.822 221.687C286.823 221.691 286.823 221.696 286.824 221.7C286.92 222.244 287.439 222.607 287.983 222.511C289.502 222.243 290.998 221.887 292.461 221.446C292.99 221.287 293.289 220.729 293.13 220.2C293.129 220.196 293.128 220.192 293.126 220.188C293.916 219.927 294.694 219.64 295.461 219.328C295.462 219.333 295.464 219.337 295.466 219.341C295.688 219.847 296.278 220.077 296.783 219.855C298.196 219.235 299.565 218.531 300.882 217.746C301.356 217.463 301.511 216.849 301.228 216.374C301.226 216.37 301.223 216.366 301.221 216.362C301.922 215.917 302.606 215.447 303.271 214.954C303.274 214.958 303.277 214.962 303.28 214.966C303.622 215.399 304.25 215.474 304.684 215.133C305.289 214.656 305.879 214.16 306.451 213.644C306.99 213.158 307.51 212.658 308.012 212.145C308.398 211.75 308.39 211.117 307.995 210.731C307.992 210.727 307.988 210.724 307.984 210.72C308.483 210.177 308.961 209.62 309.417 209.05C309.421 209.053 309.425 209.057 309.429 209.06C309.871 209.391 310.498 209.301 310.829 208.859C311.703 207.692 312.49 206.477 313.186 205.223C313.454 204.74 313.28 204.131 312.798 203.863C312.793 203.86 312.788 203.858 312.783 203.855C313.119 203.2 313.429 202.535 313.714 201.861C313.719 201.863 313.725 201.866 313.73 201.868C314.246 202.065 314.824 201.807 315.022 201.292C315.541 199.936 315.962 198.548 316.28 197.136C316.401 196.597 316.062 196.062 315.524 195.941C315.518 195.94 315.512 195.939 315.507 195.937C315.642 195.217 315.751 194.491 315.831 193.761C315.837 193.762 315.842 193.762 315.848 193.763C316.399 193.804 316.879 193.39 316.92 192.839C316.973 192.118 317 191.394 317 190.667V188.701C317 188.149 316.552 187.701 316 187.701V185.771C316.552 185.771 317 185.323 317 184.771V180.84C317 180.288 316.552 179.84 316 179.84V177.91C316.552 177.91 317 177.462 317 176.91V172.979C317 172.427 316.552 171.979 316 171.979V170.049C316.552 170.049 317 169.601 317 169.049V165.118C317 164.566 316.552 164.118 316 164.118V162.188C316.552 162.188 317 161.74 317 161.188V157.257C317 156.705 316.552 156.257 316 156.257V154.326C316.552 154.326 317 153.879 317 153.326V149.396C317 148.844 316.552 148.396 316 148.396V146.465C316.552 146.465 317 146.018 317 145.465V141.535C317 140.982 316.552 140.535 316 140.535V138.604C316.552 138.604 317 138.156 317 137.604V133.674C317 133.121 316.552 132.674 316 132.674V130.743C316.552 130.743 317 130.295 317 129.743V125.813C317 125.26 316.552 124.813 316 124.813V122.882C316.552 122.882 317 122.434 317 121.882V117.951C317 117.399 316.552 116.951 316 116.951V115.021C316.552 115.021 317 114.573 317 114.021V110.09C317 109.538 316.552 109.09 316 109.09V107.16C316.552 107.16 317 106.712 317 106.16V102.229C317 101.677 316.552 101.229 316 101.229V99.2986C316.552 99.2986 317 98.8509 317 98.2986V94.3681C317 93.8158 316.552 93.3681 316 93.3681V91.4375C316.552 91.4375 317 90.9898 317 90.4375V86.507C317 85.9547 316.552 85.507 316 85.507V83.5764C316.552 83.5764 317 83.1287 317 82.5764V78.6458C317 78.0936 316.552 77.6458 316 77.6458V75.7153C316.552 75.7153 317 75.2676 317 74.7153V70.7847C317 70.2324 316.552 69.7847 316 69.7847V67.8542C316.552 67.8542 317 67.4064 317 66.8542V62.9236C317 62.3713 316.552 61.9236 316 61.9236V59.9931C316.552 59.9931 317 59.5453 317 58.9931V55.0625C317 54.5102 316.552 54.0625 316 54.0625V52.1319C316.552 52.1319 317 51.6842 317 51.1319V47.2014C317 46.6491 316.552 46.2014 316 46.2014V44.2708C316.552 44.2708 317 43.8231 317 43.2708V39.3403C317 38.788 316.552 38.3403 316 38.3403V36.4097C316.552 36.4097 317 35.962 317 35.4097V33.4444C317 32.7173 316.973 31.9927 316.92 31.2717C316.879 30.721 316.399 30.3076 315.848 30.3485C315.842 30.3489 315.837 30.3494 315.831 30.3499C315.751 29.6197 315.642 28.8939 315.507 28.1737C315.512 28.1726 315.518 28.1713 315.524 28.17C316.062 28.0488 316.401 27.5137 316.28 26.9749C315.962 25.5628 315.541 24.1747 315.022 22.8194C314.824 22.3037 314.246 22.0459 313.73 22.2436C313.725 22.2456 313.719 22.2477 313.714 22.2498C313.429 21.5758 313.119 20.9108 312.783 20.256C312.788 20.2534 312.793 20.2508 312.798 20.2481C313.28 19.9801 313.454 19.3713 313.186 18.8884C312.49 17.6336 311.703 16.4189 310.829 15.2523C310.498 14.8102 309.871 14.7203 309.429 15.0513C309.425 15.0545 309.421 15.0577 309.417 15.0609C308.961 14.4912 308.483 13.9341 307.984 13.3908C307.988 13.3872 307.992 13.3837 307.995 13.3801C308.39 12.9942 308.398 12.361 308.012 11.966C307.51 11.453 306.99 10.953 306.451 10.467C305.879 9.95142 305.289 9.45513 304.684 8.9786C304.25 8.63692 303.622 8.71168 303.28 9.14558C303.277 9.14942 303.274 9.15327 303.271 9.15714C302.606 8.6639 301.922 8.19424 301.221 7.74877C301.223 7.74476 301.226 7.74072 301.228 7.73666C301.511 7.26237 301.356 6.6485 300.882 6.36553C299.565 5.58015 298.196 4.87589 296.783 4.25618C296.278 4.0343 295.688 4.26442 295.466 4.77018C295.464 4.77434 295.462 4.77851 295.461 4.78268C294.694 4.47104 293.916 4.18444 293.126 3.92346C293.128 3.91924 293.129 3.915 293.13 3.91074C293.289 3.38194 292.99 2.82409 292.461 2.66476C290.998 2.22392 289.502 1.86789 287.983 1.59996C287.439 1.50406 286.92 1.86723 286.824 2.41113C286.823 2.41542 286.823 2.41971 286.822 2.42399C286.005 2.30173 285.181 2.2055 284.352 2.13583C284.352 2.13153 284.352 2.12723 284.352 2.12292C284.384 1.57156 283.963 1.09866 283.412 1.06667C282.648 1.02236 281.881 1 281.111 1H279.142C278.589 1 278.142 1.44772 278.142 2H276.203C276.203 1.44772 275.755 1 275.203 1H271.264C270.711 1 270.264 1.44772 270.264 2H268.324C268.324 1.44772 267.877 1 267.324 1H263.385C262.833 1 262.385 1.44772 262.385 2H260.446C260.446 1.44772 259.999 1 259.446 1H255.507C254.955 1 254.507 1.44772 254.507 2H252.568C252.568 1.44772 252.12 1 251.568 1H247.629C247.077 1 246.629 1.44772 246.629 2H244.69C244.69 1.44772 244.242 1 243.69 1H239.751C239.199 1 238.751 1.44772 238.751 2H236.812C236.812 1.44772 236.364 1 235.812 1H231.873C231.321 1 230.873 1.44772 230.873 2H228.934C228.934 1.44772 228.486 1 227.934 1H223.995C223.442 1 222.995 1.44772 222.995 2H221.056C221.056 1.44772 220.608 1 220.056 1H216.117C215.564 1 215.117 1.44772 215.117 2H213.178C213.178 1.44772 212.73 1 212.178 1H208.238C207.686 1 207.238 1.44772 207.238 2H205.299C205.299 1.44772 204.852 1 204.299 1H200.36C199.808 1 199.36 1.44772 199.36 2H197.421C197.421 1.44772 196.973 1 196.421 1H192.482C191.93 1 191.482 1.44772 191.482 2H189.543C189.543 1.44772 189.095 1 188.543 1H184.604C184.052 1 183.604 1.44772 183.604 2H181.665C181.665 1.44772 181.217 1 180.665 1H176.726C176.174 1 175.726 1.44772 175.726 2H173.787C173.787 1.44772 173.339 1 172.787 1H168.848C168.295 1 167.848 1.44772 167.848 2H165.909C165.909 1.44772 165.461 1 164.909 1H160.97C160.417 1 159.97 1.44772 159.97 2H158.031C158.031 1.44772 157.583 1 157.031 1H153.091C152.539 1 152.091 1.44772 152.091 2H150.152C150.152 1.44772 149.705 1 149.152 1H145.213C144.661 1 144.213 1.44772 144.213 2H142.274C142.274 1.44772 141.827 1 141.274 1H137.335C136.783 1 136.335 1.44772 136.335 2H134.396C134.396 1.44772 133.948 1 133.396 1H129.457C128.905 1 128.457 1.44772 128.457 2H126.518C126.518 1.44772 126.07 1 125.518 1H121.579C121.027 1 120.579 1.44772 120.579 2H118.64C118.64 1.44772 118.192 1 117.64 1H113.701C113.148 1 112.701 1.44772 112.701 2H110.762C110.762 1.44772 110.314 1 109.762 1H105.823C105.27 1 104.823 1.44772 104.823 2H102.884C102.884 1.44772 102.436 1 101.884 1H97.9444C97.3922 1 96.9444 1.44772 96.9444 2H95.0054C95.0054 1.44772 94.5577 1 94.0054 1H90.0663C89.514 1 89.0663 1.44772 89.0663 2H87.1272C87.1272 1.44772 86.6795 1 86.1272 1H82.1882C81.6359 1 81.1882 1.44772 81.1882 2H79.2491C79.2491 1.44772 78.8014 1 78.2491 1H74.31C73.7578 1 73.31 1.44772 73.31 2H71.371C71.371 1.44772 70.9232 1 70.371 1H66.4319C65.8796 1 65.4319 1.44772 65.4319 2H63.4928C63.4928 1.44772 63.0451 1 62.4928 1H58.5538C58.0015 1 57.5538 1.44772 57.5538 2H55.6147C55.6147 1.44772 55.167 1 54.6147 1H50.6756C50.1233 1 49.6756 1.44772 49.6756 2H47.7366C47.7366 1.44772 47.2888 1 46.7366 1H42.7975C42.2452 1 41.7975 1.44772 41.7975 2H39.8584C39.8584 1.44772 39.4107 1 38.8584 1H36.8889C36.119 1 35.3517 1.02236 34.588 1.06667C34.0367 1.09866 33.6156 1.57156 33.6476 2.12292C33.6479 2.12723 33.6482 2.13153 33.6485 2.13583C32.8195 2.2055 31.9955 2.30173 31.1779 2.42399C31.1772 2.41971 31.1765 2.41542 31.1758 2.41113C31.0799 1.86723 30.5612 1.50406 30.0173 1.59996C28.4977 1.86789 27.0019 2.22392 25.5388 2.66476C25.01 2.82409 24.7105 3.38194 24.8699 3.91074C24.8711 3.91499 24.8724 3.91923 24.8738 3.92346C24.0844 4.18444 23.3058 4.47104 22.5395 4.78268C22.5377 4.77851 22.5359 4.77434 22.5341 4.77018C22.3122 4.26442 21.7223 4.0343 21.2166 4.25618C19.804 4.87589 18.4347 5.58015 17.1182 6.36553C16.6439 6.6485 16.4888 7.26237 16.7718 7.73666C16.7742 7.74072 16.7767 7.74475 16.7791 7.74876C16.0784 8.19424 15.3945 8.66389 14.729 9.15714C14.726 9.15327 14.7231 9.14942 14.72 9.14558C14.3784 8.71168 13.7496 8.63692 13.3157 8.9786C12.7106 9.45513 12.1213 9.95142 11.5492 10.467C11.01 10.953 10.4896 11.453 9.98833 11.966C9.60237 12.361 9.60973 12.9942 10.0048 13.3801C10.0084 13.3837 10.0121 13.3872 10.0158 13.3908C9.51664 13.9341 9.03902 14.4912 8.58346 15.0609C8.57929 15.0577 8.57509 15.0545 8.57085 15.0513C8.1288 14.7203 7.50206 14.8102 7.17099 15.2523C6.2973 16.4189 5.51015 17.6336 4.81355 18.8884C4.54549 19.3713 4.71962 19.9801 5.20249 20.2481C5.20732 20.2508 5.21216 20.2534 5.21701 20.256C4.88135 20.9108 4.5708 21.5758 4.2859 22.2498C4.28066 22.2477 4.27539 22.2456 4.2701 22.2436C3.75441 22.0459 3.1761 22.3037 2.97843 22.8194C2.45891 24.1747 2.03815 25.5628 1.72038 26.9749C1.59912 27.5137 1.93762 28.0488 2.47643 28.17C2.48211 28.1713 2.48779 28.1726 2.49347 28.1737C2.35761 28.8939 2.24935 29.6197 2.16925 30.3499C2.16342 30.3494 2.15757 30.3489 2.1517 30.3485C1.60093 30.3076 1.12132 30.721 1.08047 31.2717C1.02699 31.9927 1 32.7173 1 33.4444V35.4732C1 36.0255 1.44772 36.4732 2 36.4732V38.5306C1.44772 38.5306 1 38.9783 1 39.5306V43.5879C1 44.1402 1.44772 44.5879 2 44.5879V46.6453C1.44772 46.6453 1 47.093 1 47.6453V51.7026C1 52.2549 1.44772 52.7026 2 52.7026V54.76C1.44772 54.76 1 55.2077 1 55.76V59.8173C1 60.3696 1.44772 60.8173 2 60.8173V62.8746C1.44772 62.8746 1 63.3223 1 63.8746V67.932C1 68.4843 1.44772 68.932 2 68.932V70.9893C1.44772 70.9893 1 71.437 1 71.9893V76.0467C1 76.5989 1.44772 77.0467 2 77.0467V79.104C1.44772 79.104 1 79.5517 1 80.104V84.1613C1 84.7136 1.44772 85.1613 2 85.1613V87.2187C1.44772 87.2187 1 87.6664 1 88.2187V92.276C1 92.8283 1.44772 93.276 2 93.276V95.3334C1.44772 95.3334 1 95.7811 1 96.3334V100.391C1 100.943 1.44772 101.391 2 101.391V103.448C1.44772 103.448 1 103.896 1 104.448V108.505C1 109.058 1.44772 109.505 2 109.505V111.563C1.44772 111.563 1 112.01 1 112.563V116.62C1 117.172 1.44772 117.62 2 117.62V119.677C1.44772 119.677 1 120.125 1 120.677V124.735C1 125.287 1.44772 125.735 2 125.735V127.792C1.44772 127.792 1 128.24 1 128.792V132.849C1 133.402 1.44772 133.849 2 133.849V135.907C1.44772 135.907 1 136.355 1 136.907V140.964C1 141.516 1.44772 141.964 2 141.964V144.021C1.44772 144.021 1 144.469 1 145.021V149.079C1 149.631 1.44772 150.079 2 150.079V152.136C1.44772 152.136 1 152.584 1 153.136V157.194C1 157.746 1.44772 158.194 2 158.194V160.251C1.44772 160.251 1 160.699 1 161.251V165.308C1 165.861 1.44772 166.308 2 166.308V168.366C1.44772 168.366 1 168.813 1 169.366V173.423C1 173.975 1.44772 174.423 2 174.423V176.48C1.44772 176.48 1 176.928 1 177.48V181.538C1 182.09 1.44772 182.538 2 182.538V184.595C1.44772 184.595 1 185.043 1 185.595V189.652C1 190.205 1.44772 190.652 2 190.652V192.71C1.44772 192.71 1 193.157 1 193.71V197.767C1 198.319 1.44772 198.767 2 198.767V200.824C1.44772 200.824 1 201.272 1 201.824V205.882C1 206.434 1.44772 206.882 2 206.882V208.939C1.44772 208.939 1 209.387 1 209.939V213.996C1 214.549 1.44772 214.996 2 214.996V217.054C1.44772 217.054 1 217.501 1 218.054V222.111C1 222.663 1.44772 223.111 2 223.111V225.168C1.44772 225.168 1 225.616 1 226.168V230.226C1 230.778 1.44772 231.226 2 231.226V233.283C1.44772 233.283 1 233.731 1 234.283V238.34C1 238.893 1.44772 239.34 2 239.34V241.398C1.44772 241.398 1 241.846 1 242.398V246.455C1 247.007 1.44772 247.455 2 247.455V249.513C1.44772 249.513 1 249.96 1 250.513V254.57C1 255.122 1.44772 255.57 2 255.57V257.627C1.44772 257.627 1 258.075 1 258.627V262.685C1 263.237 1.44772 263.685 2 263.685V265.742C1.44772 265.742 1 266.19 1 266.742V270.799C1 271.352 1.44772 271.799 2 271.799V273.857C1.44772 273.857 1 274.304 1 274.857V278.914C1 279.466 1.44772 279.914 2 279.914V281.971C1.44772 281.971 1 282.419 1 282.971V285Z" stroke="#3E312B" stroke-width="2" stroke-linecap="round" stroke-linejoin="round" stroke-dasharray="4 4"/>
</g>
<path d="M91.0717 82.4H105.088V92H78.5277V46.88H91.0717V82.4ZM146.829 73.632C146.829 74.6133 146.765 75.5947 146.637 76.576H122.893C123.021 78.5387 123.555 80.0107 124.493 80.992C125.475 81.9307 126.712 82.4 128.205 82.4C130.296 82.4 131.789 81.4613 132.685 79.584H146.061C145.507 82.0587 144.419 84.2773 142.797 86.24C141.219 88.16 139.213 89.6747 136.781 90.784C134.349 91.8933 131.661 92.448 128.717 92.448C125.176 92.448 122.019 91.7013 119.245 90.208C116.515 88.7147 114.36 86.5813 112.781 83.808C111.245 81.0347 110.477 77.7707 110.477 74.016C110.477 70.2613 111.245 67.0187 112.781 64.288C114.317 61.5147 116.451 59.3813 119.181 57.888C121.955 56.3947 125.133 55.648 128.717 55.648C132.259 55.648 135.395 56.3733 138.125 57.824C140.856 59.2747 142.989 61.3653 144.525 64.096C146.061 66.784 146.829 69.9627 146.829 73.632ZM134.029 70.496C134.029 68.96 133.517 67.7653 132.493 66.912C131.469 66.016 130.189 65.568 128.653 65.568C127.117 65.568 125.859 65.9947 124.877 66.848C123.896 67.6587 123.256 68.8747 122.957 70.496H134.029ZM175.707 81.312V92H170.267C161.093 92 156.507 87.456 156.507 78.368V66.528H152.091V56.096H156.507V47.392H169.115V56.096H175.643V66.528H169.115V78.56C169.115 79.5413 169.328 80.2453 169.755 80.672C170.224 81.0987 170.992 81.312 172.059 81.312H175.707ZM187.092 46.88H199.764L192.404 64.928H184.02L187.092 46.88ZM224.001 92.448C220.759 92.448 217.857 91.9147 215.297 90.848C212.78 89.7387 210.775 88.2453 209.281 86.368C207.831 84.448 207.02 82.2933 206.849 79.904H219.009C219.18 81.056 219.713 81.952 220.609 82.592C221.505 83.232 222.615 83.552 223.937 83.552C224.961 83.552 225.772 83.3387 226.369 82.912C226.967 82.4853 227.265 81.9307 227.265 81.248C227.265 80.352 226.775 79.6907 225.793 79.264C224.812 78.8373 223.191 78.368 220.929 77.856C218.369 77.344 216.236 76.768 214.529 76.128C212.823 75.488 211.329 74.4427 210.049 72.992C208.812 71.5413 208.193 69.5787 208.193 67.104C208.193 64.9707 208.769 63.0507 209.921 61.344C211.073 59.5947 212.759 58.208 214.977 57.184C217.239 56.16 219.948 55.648 223.105 55.648C227.799 55.648 231.489 56.8 234.177 59.104C236.865 61.408 238.423 64.4373 238.849 68.192H227.521C227.308 67.04 226.796 66.1653 225.985 65.568C225.217 64.928 224.172 64.608 222.849 64.608C221.825 64.608 221.036 64.8 220.481 65.184C219.969 65.568 219.713 66.1013 219.713 66.784C219.713 67.6373 220.204 68.2987 221.185 68.768C222.167 69.1947 223.745 69.6427 225.921 70.112C228.524 70.6667 230.679 71.2853 232.385 71.968C234.135 72.6507 235.649 73.76 236.929 75.296C238.252 76.7893 238.913 78.8373 238.913 81.44C238.913 83.5307 238.295 85.408 237.057 87.072C235.863 88.736 234.135 90.0587 231.873 91.04C229.655 91.9787 227.031 92.448 224.001 92.448ZM76.3018 165.344C76.3018 160.907 77.2191 156.96 79.0538 153.504C80.9311 150.005 83.5764 147.296 86.9898 145.376C90.4031 143.413 94.3284 142.432 98.7658 142.432C104.398 142.432 109.134 143.947 112.974 146.976C116.814 149.963 119.288 154.037 120.398 159.2H106.894C106.083 157.493 104.952 156.192 103.502 155.296C102.094 154.4 100.451 153.952 98.5738 153.952C95.6724 153.952 93.3471 154.997 91.5978 157.088C89.8911 159.136 89.0378 161.888 89.0378 165.344C89.0378 168.843 89.8911 171.637 91.5978 173.728C93.3471 175.776 95.6724 176.8 98.5738 176.8C100.451 176.8 102.094 176.352 103.502 175.456C104.952 174.56 106.083 173.259 106.894 171.552H120.398C119.288 176.715 116.814 180.811 112.974 183.84C109.134 186.827 104.398 188.32 98.7658 188.32C94.3284 188.32 90.4031 187.36 86.9898 185.44C83.5764 183.477 80.9311 180.768 79.0538 177.312C77.2191 173.813 76.3018 169.824 76.3018 165.344ZM152.514 151.776C156.61 151.776 159.852 153.163 162.242 155.936C164.674 158.667 165.89 162.379 165.89 167.072V188H153.346V168.736C153.346 166.688 152.812 165.088 151.746 163.936C150.679 162.741 149.25 162.144 147.458 162.144C145.58 162.144 144.108 162.741 143.042 163.936C141.975 165.088 141.442 166.688 141.442 168.736V188H128.898V140.64H141.442V157.216C142.551 155.595 144.044 154.293 145.922 153.312C147.842 152.288 150.039 151.776 152.514 151.776ZM173.285 170.016C173.285 166.304 173.946 163.061 175.269 160.288C176.634 157.515 178.469 155.381 180.773 153.888C183.119 152.395 185.722 151.648 188.581 151.648C191.055 151.648 193.189 152.139 194.981 153.12C196.773 154.101 198.159 155.424 199.141 157.088V152.096H211.685V188H199.141V183.008C198.159 184.672 196.751 185.995 194.917 186.976C193.125 187.957 191.013 188.448 188.581 188.448C185.722 188.448 183.119 187.701 180.773 186.208C178.469 184.715 176.634 182.581 175.269 179.808C173.946 176.992 173.285 173.728 173.285 170.016ZM199.141 170.016C199.141 167.712 198.501 165.899 197.221 164.576C195.983 163.253 194.447 162.592 192.613 162.592C190.735 162.592 189.178 163.253 187.941 164.576C186.703 165.856 186.085 167.669 186.085 170.016C186.085 172.32 186.703 174.155 187.941 175.52C189.178 176.843 190.735 177.504 192.613 177.504C194.447 177.504 195.983 176.843 197.221 175.52C198.501 174.197 199.141 172.363 199.141 170.016ZM242.577 177.312V188H237.137C227.963 188 223.377 183.456 223.377 174.368V162.528H218.961V152.096H223.377V143.392H235.985V152.096H242.513V162.528H235.985V174.56C235.985 175.541 236.198 176.245 236.625 176.672C237.094 177.099 237.862 177.312 238.929 177.312H242.577Z" fill="white"/>
<defs>
<filter id="filter0_b_76_2" x="-4" y="-4" width="326" height="295" filterUnits="userSpaceOnUse" color-interpolation-filters="sRGB">
<feFlood flood-opacity="0" result="BackgroundImageFix"/>
<feGaussianBlur in="BackgroundImageFix" stdDeviation="2"/>
<feComposite in2="SourceAlpha" operator="in" result="effect1_backgroundBlur_76_2"/>
<feBlend mode="normal" in="SourceGraphic" in2="effect1_backgroundBlur_76_2" result="shape"/>
</filter>
</defs>
</svg>
