<svg width="60" height="44" viewBox="0 0 60 44" fill="none" xmlns="http://www.w3.org/2000/svg">
<path d="M30 23.8334C31.3807 23.8334 32.5 23.0125 32.5 22C32.5 20.9875 31.3807 20.1667 30 20.1667C28.6193 20.1667 27.5 20.9875 27.5 22C27.5 23.0125 28.6193 23.8334 30 23.8334Z" stroke="white" stroke-width="2" stroke-linecap="round" stroke-linejoin="round"/>
<path d="M30 11C31.3807 11 32.5 10.1792 32.5 9.16665C32.5 8.15412 31.3807 7.33331 30 7.33331C28.6193 7.33331 27.5 8.15412 27.5 9.16665C27.5 10.1792 28.6193 11 30 11Z" stroke="white" stroke-width="2" stroke-linecap="round" stroke-linejoin="round"/>
<path d="M30 36.6667C31.3807 36.6667 32.5 35.8459 32.5 34.8333C32.5 33.8208 31.3807 33 30 33C28.6193 33 27.5 33.8208 27.5 34.8333C27.5 35.8459 28.6193 36.6667 30 36.6667Z" stroke="white" stroke-width="2" stroke-linecap="round" stroke-linejoin="round"/>
</svg>
