<svg width="295" height="227" viewBox="0 0 295 227" fill="none" xmlns="http://www.w3.org/2000/svg">
<path d="M1 225C1 225.382 1.21745 225.73 1.56043 225.898C1.90341 226.066 2.31204 226.024 2.61356 225.79L4.208 224.551C4.64411 224.212 4.72295 223.584 4.38409 223.148L5.99368 221.897C6.33254 222.333 6.96078 222.412 7.39689 222.073L10.5858 219.595C11.0219 219.256 11.1007 218.628 10.7619 218.192L12.3715 216.941C12.7103 217.377 13.3386 217.456 13.7747 217.117L16.9636 214.64C17.3997 214.301 17.4785 213.673 17.1397 213.236L18.7492 211.986C19.0881 212.422 19.7163 212.501 20.1525 212.162L23.3413 209.684C23.7775 209.345 23.8563 208.717 23.5174 208.281L25.127 207.03C25.4659 207.466 26.0941 207.545 26.5302 207.206L29.7191 204.729C30.1552 204.39 30.2341 203.761 29.8952 203.325L31.5048 202.075C31.8437 202.511 32.4719 202.59 32.908 202.251L36.0969 199.773C36.533 199.434 36.6118 198.806 36.273 198.37L37.8826 197.119C38.2214 197.555 38.8497 197.634 39.2858 197.295L42.4747 194.817C42.9108 194.479 42.9896 193.85 42.6508 193.414L44.2603 192.164C44.5992 192.6 45.2274 192.679 45.6636 192.34L48.8524 189.862C49.2886 189.523 49.3674 188.895 49.0285 188.459L50.6381 187.208C50.977 187.644 51.6052 187.723 52.0413 187.384L55.2302 184.906C55.6663 184.567 55.7452 183.939 55.4063 183.503L57.0159 182.252C57.3548 182.689 57.983 182.767 58.4191 182.429L61.608 179.951C62.0441 179.612 62.1229 178.984 61.7841 178.548L63.3937 177.297C63.7325 177.733 64.3608 177.812 64.7969 177.473L66.1206 176.444H67.7707C68.323 176.444 68.7707 175.997 68.7707 175.444H70.7568C70.7568 175.997 71.2046 176.444 71.7568 176.444H75.743C76.2952 176.444 76.743 175.997 76.743 175.444H78.7291C78.7291 175.997 79.1768 176.444 79.7291 176.444H83.7152C84.2675 176.444 84.7152 175.997 84.7152 175.444H86.7013C86.7013 175.997 87.149 176.444 87.7013 176.444H91.6874C92.2397 176.444 92.6874 175.997 92.6874 175.444H94.6735C94.6735 175.997 95.1212 176.444 95.6735 176.444H99.6596C100.212 176.444 100.66 175.997 100.66 175.444H102.646C102.646 175.997 103.093 176.444 103.646 176.444H107.632C108.184 176.444 108.632 175.997 108.632 175.444H110.618C110.618 175.997 111.066 176.444 111.618 176.444H115.604C116.156 176.444 116.604 175.997 116.604 175.444H118.59C118.59 175.997 119.038 176.444 119.59 176.444H123.576C124.129 176.444 124.576 175.997 124.576 175.444H126.562C126.562 175.997 127.01 176.444 127.562 176.444H131.549C132.101 176.444 132.549 175.997 132.549 175.444H134.535C134.535 175.997 134.982 176.444 135.535 176.444H139.521C140.073 176.444 140.521 175.997 140.521 175.444H142.507C142.507 175.997 142.955 176.444 143.507 176.444H147.493C148.045 176.444 148.493 175.997 148.493 175.444H150.479C150.479 175.997 150.927 176.444 151.479 176.444H155.465C156.018 176.444 156.465 175.997 156.465 175.444H158.451C158.451 175.997 158.899 176.444 159.451 176.444H163.437C163.99 176.444 164.437 175.997 164.437 175.444H166.424C166.424 175.997 166.871 176.444 167.424 176.444H171.41C171.962 176.444 172.41 175.997 172.41 175.444H174.396C174.396 175.997 174.844 176.444 175.396 176.444H179.382C179.934 176.444 180.382 175.997 180.382 175.444H182.368C182.368 175.997 182.816 176.444 183.368 176.444H187.354C187.906 176.444 188.354 175.997 188.354 175.444H190.34C190.34 175.997 190.788 176.444 191.34 176.444H195.326C195.879 176.444 196.326 175.997 196.326 175.444H198.312C198.312 175.997 198.76 176.444 199.312 176.444H203.299C203.851 176.444 204.299 175.997 204.299 175.444H206.285C206.285 175.997 206.732 176.444 207.285 176.444H211.271C211.823 176.444 212.271 175.997 212.271 175.444H214.257C214.257 175.997 214.705 176.444 215.257 176.444H219.243C219.795 176.444 220.243 175.997 220.243 175.444H222.229C222.229 175.997 222.677 176.444 223.229 176.444H227.215C227.768 176.444 228.215 175.997 228.215 175.444H230.201C230.201 175.997 230.649 176.444 231.201 176.444H235.187C235.74 176.444 236.187 175.997 236.187 175.444H238.174C238.174 175.997 238.621 176.444 239.174 176.444H243.16C243.712 176.444 244.16 175.997 244.16 175.444H246.146C246.146 175.997 246.594 176.444 247.146 176.444H251.132C251.684 176.444 252.132 175.997 252.132 175.444H254.118C254.118 175.997 254.566 176.444 255.118 176.444H257.111C257.8 176.444 258.486 176.428 259.169 176.394C259.721 176.367 260.146 175.898 260.119 175.346C260.119 175.342 260.118 175.338 260.118 175.334C260.792 175.285 261.462 175.218 262.127 175.136C262.128 175.14 262.128 175.144 262.129 175.148C262.21 175.695 262.719 176.071 263.265 175.99C264.635 175.786 265.983 175.514 267.303 175.178C267.838 175.041 268.162 174.497 268.025 173.962C268.024 173.957 268.023 173.953 268.022 173.949C268.672 173.765 269.315 173.564 269.949 173.348C269.951 173.352 269.952 173.356 269.954 173.361C270.146 173.878 270.722 174.142 271.24 173.949C272.543 173.464 273.807 172.911 275.024 172.292C275.516 172.042 275.712 171.44 275.462 170.948C275.46 170.943 275.457 170.939 275.455 170.934C276.049 170.61 276.63 170.269 277.196 169.912C277.199 169.917 277.202 169.921 277.205 169.926C277.514 170.383 278.135 170.504 278.593 170.195C279.169 169.806 279.73 169.4 280.273 168.977C280.745 168.61 281.201 168.234 281.642 167.848C282.057 167.483 282.098 166.852 281.734 166.436C281.73 166.432 281.726 166.427 281.722 166.423C282.071 166.094 282.409 165.758 282.734 165.417C282.739 165.421 282.744 165.425 282.749 165.43C283.163 165.795 283.795 165.756 284.16 165.341C284.96 164.435 285.685 163.49 286.329 162.512C286.633 162.051 286.506 161.431 286.044 161.127C286.038 161.123 286.032 161.119 286.026 161.115C286.272 160.704 286.503 160.288 286.72 159.868C286.727 159.871 286.734 159.874 286.741 159.878C287.243 160.107 287.836 159.887 288.066 159.384C288.569 158.286 288.978 157.158 289.288 156.009C289.432 155.476 289.116 154.927 288.583 154.783C288.575 154.781 288.566 154.779 288.558 154.777C288.659 154.311 288.743 153.843 288.809 153.372C288.818 153.373 288.827 153.374 288.835 153.374C289.385 153.423 289.871 153.017 289.92 152.467C289.973 151.87 290 151.269 290 150.667V148.602C290 148.05 289.552 147.602 289 147.602V145.472C289.552 145.472 290 145.025 290 144.472V140.343C290 139.79 289.552 139.343 289 139.343V137.213C289.552 137.213 290 136.765 290 136.213V132.083C290 131.531 289.552 131.083 289 131.083V128.954C289.552 128.954 290 128.506 290 127.954V123.824C290 123.272 289.552 122.824 289 122.824V120.694C289.552 120.694 290 120.247 290 119.694V115.565C290 115.013 289.552 114.565 289 114.565V112.435C289.552 112.435 290 111.987 290 111.435V107.306C290 106.753 289.552 106.306 289 106.306V104.176C289.552 104.176 290 103.728 290 103.176V99.0463C290 98.494 289.552 98.0463 289 98.0463V95.9167C289.552 95.9167 290 95.469 290 94.9167V90.787C290 90.2347 289.552 89.787 289 89.787V87.6574C289.552 87.6574 290 87.2097 290 86.6574V82.5278C290 81.9755 289.552 81.5278 289 81.5278V79.3981C289.552 79.3981 290 78.9504 290 78.3981V74.2685C290 73.7162 289.552 73.2685 289 73.2685V71.1389C289.552 71.1389 290 70.6912 290 70.1389V66.0093C290 65.457 289.552 65.0093 289 65.0093V62.8796C289.552 62.8796 290 62.4319 290 61.8796V57.75C290 57.1977 289.552 56.75 289 56.75V54.6204C289.552 54.6204 290 54.1727 290 53.6204V49.4907C290 48.9385 289.552 48.4907 289 48.4907V46.3611C289.552 46.3611 290 45.9134 290 45.3611V41.2315C290 40.6792 289.552 40.2315 289 40.2315V38.1018C289.552 38.1018 290 37.6541 290 37.1018V32.9722C290 32.4199 289.552 31.9722 289 31.9722V29.8426C289.552 29.8426 290 29.3949 290 28.8426V26.7778C290 26.1751 289.973 25.5746 289.92 24.9773C289.871 24.4272 289.385 24.0209 288.835 24.0699C288.827 24.0707 288.818 24.0716 288.809 24.0726C288.743 23.6016 288.659 23.1331 288.558 22.6676C288.566 22.6656 288.575 22.6636 288.583 22.6614C289.116 22.5176 289.432 21.9687 289.288 21.4355C288.978 20.2863 288.569 19.1587 288.066 18.0601C287.836 17.5579 287.243 17.3371 286.741 17.5669C286.734 17.5701 286.727 17.5734 286.72 17.5768C286.503 17.1562 286.272 16.7403 286.026 16.3295C286.032 16.3257 286.038 16.3218 286.044 16.3178C286.506 16.0138 286.633 15.3936 286.329 14.9325C285.685 13.9548 284.96 13.0096 284.16 12.1029C283.795 11.6889 283.163 11.6494 282.749 12.0149C282.744 12.0192 282.739 12.0235 282.734 12.0278C282.409 11.6862 282.071 11.3506 281.722 11.0214C281.726 11.017 281.73 11.0125 281.734 11.008C282.098 10.5928 282.057 9.96102 281.642 9.59683C281.201 9.21058 280.745 8.83397 280.273 8.46759C279.73 8.04492 279.169 7.63888 278.593 7.24982C278.135 6.94065 277.514 7.06102 277.205 7.51866C277.202 7.52309 277.199 7.52753 277.196 7.53199C276.629 7.17521 276.049 6.83441 275.455 6.50997C275.457 6.5056 275.46 6.50121 275.462 6.49679C275.712 6.00447 275.516 5.40248 275.024 5.1522C273.807 4.53382 272.543 3.98075 271.24 3.49557C270.722 3.30288 270.146 3.56625 269.954 4.08383C269.952 4.08808 269.951 4.09234 269.949 4.0966C269.315 3.88003 268.672 3.67953 268.022 3.49543C268.023 3.49126 268.024 3.48707 268.025 3.48288C268.162 2.94772 267.838 2.40325 267.303 2.26675C265.983 1.93003 264.635 1.65844 263.265 1.45438C262.719 1.37297 262.21 1.74979 262.129 2.29604C262.128 2.30015 262.128 2.30425 262.127 2.30834C261.462 2.226 260.792 2.15989 260.118 2.11034C260.118 2.10628 260.119 2.10221 260.119 2.09813C260.146 1.54651 259.721 1.07741 259.169 1.05037C258.486 1.01689 257.8 1 257.111 1H255.118C254.566 1 254.118 1.44772 254.118 2H252.132C252.132 1.44772 251.684 1 251.132 1H247.146C246.594 1 246.146 1.44772 246.146 2H244.16C244.16 1.44772 243.712 1 243.16 1H239.174C238.621 1 238.174 1.44772 238.174 2H236.188C236.188 1.44772 235.74 1 235.188 1H231.201C230.649 1 230.201 1.44772 230.201 2H228.215C228.215 1.44772 227.768 1 227.215 1H223.229C222.677 1 222.229 1.44772 222.229 2H220.243C220.243 1.44772 219.795 1 219.243 1H215.257C214.705 1 214.257 1.44772 214.257 2H212.271C212.271 1.44772 211.823 1 211.271 1H207.285C206.733 1 206.285 1.44772 206.285 2H204.299C204.299 1.44772 203.851 1 203.299 1H199.313C198.76 1 198.313 1.44772 198.313 2H196.326C196.326 1.44772 195.879 1 195.326 1H191.34C190.788 1 190.34 1.44772 190.34 2H188.354C188.354 1.44772 187.907 1 187.354 1H183.368C182.816 1 182.368 1.44772 182.368 2H180.382C180.382 1.44772 179.934 1 179.382 1H175.396C174.844 1 174.396 1.44772 174.396 2H172.41C172.41 1.44772 171.962 1 171.41 1H167.424C166.871 1 166.424 1.44772 166.424 2H164.438C164.438 1.44772 163.99 1 163.438 1H159.451C158.899 1 158.451 1.44772 158.451 2H156.465C156.465 1.44772 156.018 1 155.465 1H151.479C150.927 1 150.479 1.44772 150.479 2H148.493C148.493 1.44772 148.045 1 147.493 1H143.507C142.955 1 142.507 1.44772 142.507 2H140.521C140.521 1.44772 140.073 1 139.521 1H135.535C134.982 1 134.535 1.44772 134.535 2H132.549C132.549 1.44772 132.101 1 131.549 1H127.563C127.01 1 126.563 1.44772 126.563 2H124.576C124.576 1.44772 124.129 1 123.576 1H119.59C119.038 1 118.59 1.44772 118.59 2H116.604C116.604 1.44772 116.156 1 115.604 1H111.618C111.066 1 110.618 1.44772 110.618 2H108.632C108.632 1.44772 108.184 1 107.632 1H103.646C103.094 1 102.646 1.44772 102.646 2H100.66C100.66 1.44772 100.212 1 99.6597 1H95.6736C95.1213 1 94.6736 1.44772 94.6736 2H92.6875C92.6875 1.44772 92.2398 1 91.6875 1H87.7014C87.1491 1 86.7014 1.44772 86.7014 2H84.7153C84.7153 1.44772 84.2676 1 83.7153 1H79.7292C79.1769 1 78.7292 1.44772 78.7292 2H76.743C76.743 1.44772 76.2953 1 75.743 1H71.7569C71.2047 1 70.7569 1.44772 70.7569 2H68.7708C68.7708 1.44772 68.3231 1 67.7708 1H63.7847C63.2324 1 62.7847 1.44772 62.7847 2H60.7986C60.7986 1.44772 60.3509 1 59.7986 1H55.8125C55.2602 1 54.8125 1.44772 54.8125 2H52.8264C52.8264 1.44772 52.3787 1 51.8264 1H47.8403C47.288 1 46.8403 1.44772 46.8403 2H44.8542C44.8542 1.44772 44.4064 1 43.8542 1H39.8681C39.3158 1 38.8681 1.44772 38.8681 2H36.8819C36.8819 1.44772 36.4342 1 35.8819 1H33.8889C33.2004 1 32.5141 1.01689 31.831 1.05037C31.2794 1.07741 30.8541 1.54651 30.8812 2.09813C30.8814 2.10221 30.8816 2.10628 30.8818 2.11034C30.2082 2.15989 29.5383 2.226 28.8729 2.30834C28.8723 2.30425 28.8717 2.30015 28.8711 2.29604C28.7897 1.74979 28.2809 1.37297 27.7346 1.45438C26.3655 1.65844 25.0169 1.93003 23.6967 2.26675C23.1616 2.40325 22.8384 2.94773 22.9749 3.48288C22.976 3.48707 22.977 3.49126 22.9782 3.49543C22.3275 3.67953 21.6847 3.88003 21.051 4.0966C21.0494 4.09234 21.0479 4.08809 21.0463 4.08383C20.8536 3.56625 20.2778 3.30288 19.7603 3.49557C18.457 3.98075 17.1927 4.53382 15.9763 5.1522C15.4839 5.40248 15.2877 6.00448 15.538 6.4968C15.5402 6.50121 15.5425 6.5056 15.5448 6.50997C14.9511 6.83442 14.3705 7.17522 13.8042 7.53199C13.8013 7.52754 13.7984 7.52309 13.7954 7.51866C13.4862 7.06102 12.8646 6.94065 12.407 7.24982C11.8311 7.63888 11.2705 8.04492 10.7265 8.46759C10.255 8.83397 9.79882 9.21058 9.35846 9.59684C8.94327 9.96102 8.90191 10.5928 9.2661 11.008C9.27004 11.0125 9.27402 11.017 9.27803 11.0214C8.92888 11.3506 8.59135 11.6862 8.26564 12.0278C8.2609 12.0235 8.25611 12.0192 8.25126 12.0149C7.83718 11.6494 7.20524 11.6889 6.83979 12.103C6.03965 13.0096 5.31541 13.9548 4.67097 14.9325C4.36704 15.3936 4.49447 16.0139 4.95561 16.3178C4.96164 16.3218 4.9677 16.3257 4.97379 16.3295C4.72793 16.7403 4.49663 17.1562 4.28015 17.5768C4.27322 17.5734 4.26624 17.5701 4.2592 17.5669C3.75701 17.3371 3.16359 17.5579 2.93375 18.0601C2.43094 19.1587 2.02223 20.2863 1.71229 21.4355C1.56847 21.9687 1.88415 22.5176 2.41738 22.6614C2.42547 22.6636 2.43356 22.6656 2.44166 22.6676C2.34088 23.1331 2.25707 23.6016 2.19052 24.0726C2.182 24.0716 2.17344 24.0707 2.16485 24.0699C1.61474 24.0209 1.12907 24.4272 1.08007 24.9773C1.02687 25.5746 1 26.1751 1 26.7778V28.7599C1 29.3122 1.44772 29.7599 2 29.7599V31.7244C1.44772 31.7244 1 32.1721 1 32.7244V36.6888C1 37.2411 1.44772 37.6888 2 37.6888V39.6533C1.44772 39.6533 1 40.101 1 40.6533V44.6177C1 45.17 1.44772 45.6177 2 45.6177V47.5822C1.44772 47.5822 1 48.0299 1 48.5822V52.5466C1 53.0989 1.44772 53.5466 2 53.5466V55.511C1.44772 55.511 1 55.9588 1 56.511V60.4755C1 61.0278 1.44772 61.4755 2 61.4755V63.44C1.44772 63.44 1 63.8877 1 64.44V68.4044C1 68.9567 1.44772 69.4044 2 69.4044V71.3688C1.44772 71.3688 1 71.8166 1 72.3688V76.3333C1 76.8856 1.44772 77.3333 2 77.3333V79.2977C1.44772 79.2977 1 79.7455 1 80.2977V84.2622C1 84.8145 1.44772 85.2622 2 85.2622V87.2266C1.44772 87.2266 1 87.6743 1 88.2266V92.1911C1 92.7434 1.44772 93.1911 2 93.1911V95.1555C1.44772 95.1555 1 95.6032 1 96.1555V100.12C1 100.672 1.44772 101.12 2 101.12V103.084C1.44772 103.084 1 103.532 1 104.084V108.049C1 108.601 1.44772 109.049 2 109.049V111.013C1.44772 111.013 1 111.461 1 112.013V115.978C1 116.53 1.44772 116.978 2 116.978V118.942C1.44772 118.942 1 119.39 1 119.942V123.907C1 124.459 1.44772 124.907 2 124.907V126.871C1.44772 126.871 1 127.319 1 127.871V131.836C1 132.388 1.44772 132.836 2 132.836V134.8C1.44772 134.8 1 135.248 1 135.8V139.764C1 140.317 1.44772 140.764 2 140.764V142.729C1.44772 142.729 1 143.177 1 143.729V147.693C1 148.246 1.44772 148.693 2 148.693V150.658C1.44772 150.658 1 151.105 1 151.658V155.622C1 156.175 1.44772 156.622 2 156.622V158.587C1.44772 158.587 1 159.034 1 159.587V163.551C1 164.103 1.44772 164.551 2 164.551V166.516C1.44772 166.516 1 166.963 1 167.516V171.48C1 172.032 1.44772 172.48 2 172.48V174.444C1.44772 174.444 1 174.892 1 175.444V179.409C1 179.961 1.44772 180.409 2 180.409V182.373C1.44772 182.373 1 182.821 1 183.373V187.338C1 187.89 1.44772 188.338 2 188.338V190.302C1.44772 190.302 1 190.75 1 191.302V195.267C1 195.819 1.44772 196.267 2 196.267V198.231C1.44772 198.231 1 198.679 1 199.231V203.196C1 203.748 1.44772 204.196 2 204.196V206.16C1.44772 206.16 1 206.608 1 207.16V211.124C1 211.677 1.44772 212.124 2 212.124V214.089C1.44772 214.089 1 214.537 1 215.089V219.053C1 219.606 1.44772 220.053 2 220.053V222.018C1.44772 222.018 1 222.465 1 223.018V225Z" fill="#1162E0" stroke="#618CC1" stroke-width="2" stroke-linecap="round" stroke-linejoin="round" stroke-dasharray="4 4"/>
<path d="M37.3968 113.448C32.1488 113.448 27.8394 112.211 24.4688 109.736C21.0981 107.219 19.2848 103.635 19.0288 98.984H32.4048C32.5328 100.563 33.0021 101.715 33.8128 102.44C34.6234 103.165 35.6688 103.528 36.9488 103.528C38.1008 103.528 39.0394 103.251 39.7648 102.696C40.5328 102.099 40.9168 101.288 40.9168 100.264C40.9168 98.9413 40.2981 97.9173 39.0608 97.192C37.8234 96.4667 35.8181 95.656 33.0448 94.76C30.1008 93.7787 27.7114 92.84 25.8768 91.944C24.0848 91.0053 22.5061 89.6613 21.1408 87.912C19.8181 86.12 19.1568 83.7947 19.1568 80.936C19.1568 78.0347 19.8821 75.56 21.3328 73.512C22.7834 71.4213 24.7888 69.8427 27.3488 68.776C29.9088 67.7093 32.8101 67.176 36.0528 67.176C41.3008 67.176 45.4821 68.4133 48.5968 70.888C51.7541 73.32 53.4394 76.7547 53.6528 81.192H40.0208C39.9781 79.8267 39.5514 78.8027 38.7408 78.12C37.9728 77.4373 36.9701 77.096 35.7328 77.096C34.7941 77.096 34.0261 77.3733 33.4288 77.928C32.8314 78.4827 32.5328 79.272 32.5328 80.296C32.5328 81.1493 32.8528 81.896 33.4928 82.536C34.1754 83.1333 35.0074 83.6667 35.9888 84.136C36.9701 84.5627 38.4208 85.1173 40.3408 85.8C43.1994 86.7813 45.5461 87.7627 47.3808 88.744C49.2581 89.6827 50.8581 91.0267 52.1808 92.776C53.5461 94.4827 54.2288 96.6587 54.2288 99.304C54.2288 101.992 53.5461 104.403 52.1808 106.536C50.8581 108.669 48.9168 110.355 46.3568 111.592C43.8394 112.829 40.8528 113.448 37.3968 113.448ZM68.9563 73.768C66.7376 73.768 64.9456 73.1707 63.5803 71.976C62.2576 70.7387 61.5963 69.2027 61.5963 67.368C61.5963 65.4907 62.2576 63.9333 63.5803 62.696C64.9456 61.4587 66.7376 60.84 68.9563 60.84C71.1323 60.84 72.8816 61.4587 74.2043 62.696C75.5696 63.9333 76.2523 65.4907 76.2523 67.368C76.2523 69.2027 75.5696 70.7387 74.2043 71.976C72.8816 73.1707 71.1323 73.768 68.9563 73.768ZM75.1643 77.096V113H62.6203V77.096H75.1643ZM98.1158 76.648C100.548 76.648 102.66 77.1387 104.452 78.12C106.286 79.1013 107.694 80.424 108.676 82.088V77.096H121.22V112.616C121.22 115.987 120.58 119.016 119.3 121.704C118.02 124.435 116.014 126.611 113.284 128.232C110.596 129.853 107.182 130.664 103.044 130.664C97.4971 130.664 93.0598 129.363 89.7318 126.76C86.4038 124.157 84.5051 120.616 84.0358 116.136H96.3878C96.6438 117.288 97.2838 118.184 98.3078 118.824C99.3318 119.464 100.654 119.784 102.276 119.784C106.542 119.784 108.676 117.395 108.676 112.616V108.008C107.694 109.672 106.286 110.995 104.452 111.976C102.66 112.957 100.548 113.448 98.1158 113.448C95.2571 113.448 92.6544 112.701 90.3078 111.208C88.0038 109.715 86.1691 107.581 84.8038 104.808C83.4811 101.992 82.8198 98.728 82.8198 95.016C82.8198 91.304 83.4811 88.0613 84.8038 85.288C86.1691 82.5147 88.0038 80.3813 90.3078 78.888C92.6544 77.3947 95.2571 76.648 98.1158 76.648ZM108.676 95.016C108.676 92.712 108.036 90.8987 106.756 89.576C105.518 88.2533 103.982 87.592 102.148 87.592C100.27 87.592 98.7131 88.2533 97.4758 89.576C96.2384 90.856 95.6198 92.6693 95.6198 95.016C95.6198 97.32 96.2384 99.1547 97.4758 100.52C98.7131 101.843 100.27 102.504 102.148 102.504C103.982 102.504 105.518 101.843 106.756 100.52C108.036 99.1973 108.676 97.3627 108.676 95.016ZM154.416 76.776C158.554 76.776 161.84 78.1627 164.272 80.936C166.704 83.6667 167.92 87.3787 167.92 92.072V113H155.376V93.736C155.376 91.688 154.842 90.088 153.776 88.936C152.709 87.7413 151.28 87.144 149.488 87.144C147.61 87.144 146.138 87.7413 145.072 88.936C144.005 90.088 143.472 91.688 143.472 93.736V113H130.928V77.096H143.472V82.216C144.581 80.5947 146.074 79.2933 147.952 78.312C149.829 77.288 151.984 76.776 154.416 76.776ZM204.461 67.88V94.056C204.461 96.488 205.015 98.3653 206.125 99.688C207.277 101.011 209.005 101.672 211.309 101.672C213.613 101.672 215.341 101.011 216.493 99.688C217.687 98.3227 218.285 96.4453 218.285 94.056V67.88H230.829V94.056C230.829 98.1947 229.954 101.736 228.205 104.68C226.455 107.581 224.066 109.779 221.037 111.272C218.05 112.723 214.722 113.448 211.053 113.448C207.383 113.448 204.098 112.723 201.197 111.272C198.338 109.779 196.077 107.581 194.413 104.68C192.791 101.779 191.981 98.2373 191.981 94.056V67.88H204.461ZM252.839 82.088C253.821 80.424 255.207 79.1013 256.999 78.12C258.791 77.1387 260.903 76.648 263.335 76.648C266.194 76.648 268.775 77.3947 271.079 78.888C273.426 80.3813 275.261 82.5147 276.583 85.288C277.949 88.0613 278.631 91.304 278.631 95.016C278.631 98.728 277.949 101.992 276.583 104.808C275.261 107.581 273.426 109.715 271.079 111.208C268.775 112.701 266.194 113.448 263.335 113.448C260.903 113.448 258.791 112.957 256.999 111.976C255.25 110.995 253.863 109.672 252.839 108.008V130.152H240.295V77.096H252.839V82.088ZM265.895 95.016C265.895 92.6693 265.255 90.856 263.975 89.576C262.738 88.2533 261.202 87.592 259.367 87.592C257.533 87.592 255.975 88.2533 254.695 89.576C253.458 90.8987 252.839 92.712 252.839 95.016C252.839 97.3627 253.458 99.1973 254.695 100.52C255.975 101.843 257.533 102.504 259.367 102.504C261.202 102.504 262.738 101.843 263.975 100.52C265.255 99.1547 265.895 97.32 265.895 95.016Z" fill="white"/>
</svg>
