<svg width="293" height="227" viewBox="0 0 293 227" fill="none" xmlns="http://www.w3.org/2000/svg">
<g filter="url(#filter0_b_80_4)">
<path d="M290 150.667C290 157.238 286.64 163.54 280.66 168.187C274.68 172.834 266.569 175.444 258.111 175.444H66.7778L3 225V26.7778C3 20.2063 6.35971 13.904 12.34 9.25724C18.3204 4.61051 26.4314 2 34.8889 2H258.111C266.569 2 274.68 4.61051 280.66 9.25724C286.64 13.904 290 20.2063 290 26.7778V150.667Z" fill="white"/>
<path d="M2 225C2 225.382 2.21745 225.73 2.56043 225.898C2.90341 226.066 3.31204 226.024 3.61356 225.79L5.208 224.551C5.64411 224.212 5.72295 223.584 5.38409 223.148L6.99368 221.897C7.33254 222.333 7.96078 222.412 8.39689 222.073L11.5858 219.595C12.0219 219.256 12.1007 218.628 11.7619 218.192L13.3715 216.941C13.7103 217.377 14.3386 217.456 14.7747 217.117L17.9636 214.64C18.3997 214.301 18.4785 213.673 18.1397 213.236L19.7492 211.986C20.0881 212.422 20.7163 212.501 21.1525 212.162L24.3413 209.684C24.7775 209.345 24.8563 208.717 24.5174 208.281L26.127 207.03C26.4659 207.466 27.0941 207.545 27.5302 207.206L30.7191 204.729C31.1552 204.39 31.2341 203.761 30.8952 203.325L32.5048 202.075C32.8437 202.511 33.4719 202.59 33.908 202.251L37.0969 199.773C37.533 199.434 37.6118 198.806 37.273 198.37L38.8826 197.119C39.2214 197.555 39.8497 197.634 40.2858 197.295L43.4747 194.817C43.9108 194.479 43.9896 193.85 43.6508 193.414L45.2603 192.164C45.5992 192.6 46.2274 192.679 46.6636 192.34L49.8524 189.862C50.2886 189.523 50.3674 188.895 50.0285 188.459L51.6381 187.208C51.977 187.644 52.6052 187.723 53.0413 187.384L56.2302 184.906C56.6663 184.567 56.7452 183.939 56.4063 183.503L58.0159 182.252C58.3548 182.689 58.983 182.767 59.4191 182.429L62.608 179.951C63.0441 179.612 63.1229 178.984 62.7841 178.548L64.3937 177.297C64.7325 177.733 65.3608 177.812 65.7969 177.473L67.1206 176.444H68.7707C69.323 176.444 69.7707 175.997 69.7707 175.444H71.7568C71.7568 175.997 72.2046 176.444 72.7568 176.444H76.743C77.2952 176.444 77.743 175.997 77.743 175.444H79.7291C79.7291 175.997 80.1768 176.444 80.7291 176.444H84.7152C85.2675 176.444 85.7152 175.997 85.7152 175.444H87.7013C87.7013 175.997 88.149 176.444 88.7013 176.444H92.6874C93.2397 176.444 93.6874 175.997 93.6874 175.444H95.6735C95.6735 175.997 96.1212 176.444 96.6735 176.444H100.66C101.212 176.444 101.66 175.997 101.66 175.444H103.646C103.646 175.997 104.093 176.444 104.646 176.444H108.632C109.184 176.444 109.632 175.997 109.632 175.444H111.618C111.618 175.997 112.066 176.444 112.618 176.444H116.604C117.156 176.444 117.604 175.997 117.604 175.444H119.59C119.59 175.997 120.038 176.444 120.59 176.444H124.576C125.129 176.444 125.576 175.997 125.576 175.444H127.562C127.562 175.997 128.01 176.444 128.562 176.444H132.549C133.101 176.444 133.549 175.997 133.549 175.444H135.535C135.535 175.997 135.982 176.444 136.535 176.444H140.521C141.073 176.444 141.521 175.997 141.521 175.444H143.507C143.507 175.997 143.955 176.444 144.507 176.444H148.493C149.045 176.444 149.493 175.997 149.493 175.444H151.479C151.479 175.997 151.927 176.444 152.479 176.444H156.465C157.018 176.444 157.465 175.997 157.465 175.444H159.451C159.451 175.997 159.899 176.444 160.451 176.444H164.437C164.99 176.444 165.437 175.997 165.437 175.444H167.424C167.424 175.997 167.871 176.444 168.424 176.444H172.41C172.962 176.444 173.41 175.997 173.41 175.444H175.396C175.396 175.997 175.844 176.444 176.396 176.444H180.382C180.934 176.444 181.382 175.997 181.382 175.444H183.368C183.368 175.997 183.816 176.444 184.368 176.444H188.354C188.906 176.444 189.354 175.997 189.354 175.444H191.34C191.34 175.997 191.788 176.444 192.34 176.444H196.326C196.879 176.444 197.326 175.997 197.326 175.444H199.312C199.312 175.997 199.76 176.444 200.312 176.444H204.299C204.851 176.444 205.299 175.997 205.299 175.444H207.285C207.285 175.997 207.732 176.444 208.285 176.444H212.271C212.823 176.444 213.271 175.997 213.271 175.444H215.257C215.257 175.997 215.705 176.444 216.257 176.444H220.243C220.795 176.444 221.243 175.997 221.243 175.444H223.229C223.229 175.997 223.677 176.444 224.229 176.444H228.215C228.768 176.444 229.215 175.997 229.215 175.444H231.201C231.201 175.997 231.649 176.444 232.201 176.444H236.187C236.74 176.444 237.187 175.997 237.187 175.444H239.174C239.174 175.997 239.621 176.444 240.174 176.444H244.16C244.712 176.444 245.16 175.997 245.16 175.444H247.146C247.146 175.997 247.594 176.444 248.146 176.444H252.132C252.684 176.444 253.132 175.997 253.132 175.444H255.118C255.118 175.997 255.566 176.444 256.118 176.444H258.111C258.8 176.444 259.486 176.428 260.169 176.394C260.721 176.367 261.146 175.898 261.119 175.346C261.119 175.342 261.118 175.338 261.118 175.334C261.792 175.285 262.462 175.218 263.127 175.136C263.128 175.14 263.128 175.144 263.129 175.148C263.21 175.695 263.719 176.071 264.265 175.99C265.635 175.786 266.983 175.514 268.303 175.178C268.838 175.041 269.162 174.497 269.025 173.962C269.024 173.957 269.023 173.953 269.022 173.949C269.672 173.765 270.315 173.564 270.949 173.348C270.951 173.352 270.952 173.356 270.954 173.361C271.146 173.878 271.722 174.142 272.24 173.949C273.543 173.464 274.807 172.911 276.024 172.292C276.516 172.042 276.712 171.44 276.462 170.948C276.46 170.943 276.457 170.939 276.455 170.934C277.049 170.61 277.63 170.269 278.196 169.912C278.199 169.917 278.202 169.921 278.205 169.926C278.514 170.383 279.135 170.504 279.593 170.195C280.169 169.806 280.73 169.4 281.273 168.977C281.745 168.61 282.201 168.234 282.642 167.848C283.057 167.483 283.098 166.852 282.734 166.436C282.73 166.432 282.726 166.427 282.722 166.423C283.071 166.094 283.409 165.758 283.734 165.417C283.739 165.421 283.744 165.425 283.749 165.43C284.163 165.795 284.795 165.756 285.16 165.341C285.96 164.435 286.685 163.49 287.329 162.512C287.633 162.051 287.506 161.431 287.044 161.127C287.038 161.123 287.032 161.119 287.026 161.115C287.272 160.704 287.503 160.288 287.72 159.868C287.727 159.871 287.734 159.874 287.741 159.878C288.243 160.107 288.836 159.887 289.066 159.384C289.569 158.286 289.978 157.158 290.288 156.009C290.432 155.476 290.116 154.927 289.583 154.783C289.575 154.781 289.566 154.779 289.558 154.777C289.659 154.311 289.743 153.843 289.809 153.372C289.818 153.373 289.827 153.374 289.835 153.374C290.385 153.423 290.871 153.017 290.92 152.467C290.973 151.87 291 151.269 291 150.667V148.602C291 148.05 290.552 147.602 290 147.602V145.472C290.552 145.472 291 145.025 291 144.472V140.343C291 139.79 290.552 139.343 290 139.343V137.213C290.552 137.213 291 136.765 291 136.213V132.083C291 131.531 290.552 131.083 290 131.083V128.954C290.552 128.954 291 128.506 291 127.954V123.824C291 123.272 290.552 122.824 290 122.824V120.694C290.552 120.694 291 120.247 291 119.694V115.565C291 115.013 290.552 114.565 290 114.565V112.435C290.552 112.435 291 111.987 291 111.435V107.306C291 106.753 290.552 106.306 290 106.306V104.176C290.552 104.176 291 103.728 291 103.176V99.0463C291 98.494 290.552 98.0463 290 98.0463V95.9167C290.552 95.9167 291 95.469 291 94.9167V90.787C291 90.2347 290.552 89.787 290 89.787V87.6574C290.552 87.6574 291 87.2097 291 86.6574V82.5278C291 81.9755 290.552 81.5278 290 81.5278V79.3981C290.552 79.3981 291 78.9504 291 78.3981V74.2685C291 73.7162 290.552 73.2685 290 73.2685V71.1389C290.552 71.1389 291 70.6912 291 70.1389V66.0093C291 65.457 290.552 65.0093 290 65.0093V62.8796C290.552 62.8796 291 62.4319 291 61.8796V57.75C291 57.1977 290.552 56.75 290 56.75V54.6204C290.552 54.6204 291 54.1727 291 53.6204V49.4907C291 48.9385 290.552 48.4907 290 48.4907V46.3611C290.552 46.3611 291 45.9134 291 45.3611V41.2315C291 40.6792 290.552 40.2315 290 40.2315V38.1018C290.552 38.1018 291 37.6541 291 37.1018V32.9722C291 32.4199 290.552 31.9722 290 31.9722V29.8426C290.552 29.8426 291 29.3949 291 28.8426V26.7778C291 26.1751 290.973 25.5746 290.92 24.9773C290.871 24.4272 290.385 24.0209 289.835 24.0699C289.827 24.0707 289.818 24.0716 289.809 24.0726C289.743 23.6016 289.659 23.1331 289.558 22.6676C289.566 22.6656 289.575 22.6636 289.583 22.6614C290.116 22.5176 290.432 21.9687 290.288 21.4355C289.978 20.2863 289.569 19.1587 289.066 18.0601C288.836 17.5579 288.243 17.3371 287.741 17.5669C287.734 17.5701 287.727 17.5734 287.72 17.5768C287.503 17.1562 287.272 16.7403 287.026 16.3295C287.032 16.3257 287.038 16.3218 287.044 16.3178C287.506 16.0138 287.633 15.3936 287.329 14.9325C286.685 13.9548 285.96 13.0096 285.16 12.1029C284.795 11.6889 284.163 11.6494 283.749 12.0149C283.744 12.0192 283.739 12.0235 283.734 12.0278C283.409 11.6862 283.071 11.3506 282.722 11.0214C282.726 11.017 282.73 11.0125 282.734 11.008C283.098 10.5928 283.057 9.96102 282.642 9.59683C282.201 9.21058 281.745 8.83397 281.273 8.46759C280.73 8.04492 280.169 7.63888 279.593 7.24982C279.135 6.94065 278.514 7.06102 278.205 7.51866C278.202 7.52309 278.199 7.52753 278.196 7.53199C277.629 7.17521 277.049 6.83441 276.455 6.50997C276.457 6.5056 276.46 6.50121 276.462 6.49679C276.712 6.00447 276.516 5.40248 276.024 5.1522C274.807 4.53382 273.543 3.98075 272.24 3.49557C271.722 3.30288 271.146 3.56625 270.954 4.08383C270.952 4.08808 270.951 4.09234 270.949 4.0966C270.315 3.88003 269.672 3.67953 269.022 3.49543C269.023 3.49126 269.024 3.48707 269.025 3.48288C269.162 2.94772 268.838 2.40325 268.303 2.26675C266.983 1.93003 265.635 1.65844 264.265 1.45438C263.719 1.37297 263.21 1.74979 263.129 2.29604C263.128 2.30015 263.128 2.30425 263.127 2.30834C262.462 2.226 261.792 2.15989 261.118 2.11034C261.118 2.10628 261.119 2.10221 261.119 2.09813C261.146 1.54651 260.721 1.07741 260.169 1.05037C259.486 1.01689 258.8 1 258.111 1H256.118C255.566 1 255.118 1.44772 255.118 2H253.132C253.132 1.44772 252.684 1 252.132 1H248.146C247.594 1 247.146 1.44772 247.146 2H245.16C245.16 1.44772 244.712 1 244.16 1H240.174C239.621 1 239.174 1.44772 239.174 2H237.188C237.188 1.44772 236.74 1 236.188 1H232.201C231.649 1 231.201 1.44772 231.201 2H229.215C229.215 1.44772 228.768 1 228.215 1H224.229C223.677 1 223.229 1.44772 223.229 2H221.243C221.243 1.44772 220.795 1 220.243 1H216.257C215.705 1 215.257 1.44772 215.257 2H213.271C213.271 1.44772 212.823 1 212.271 1H208.285C207.733 1 207.285 1.44772 207.285 2H205.299C205.299 1.44772 204.851 1 204.299 1H200.313C199.76 1 199.313 1.44772 199.313 2H197.326C197.326 1.44772 196.879 1 196.326 1H192.34C191.788 1 191.34 1.44772 191.34 2H189.354C189.354 1.44772 188.907 1 188.354 1H184.368C183.816 1 183.368 1.44772 183.368 2H181.382C181.382 1.44772 180.934 1 180.382 1H176.396C175.844 1 175.396 1.44772 175.396 2H173.41C173.41 1.44772 172.962 1 172.41 1H168.424C167.871 1 167.424 1.44772 167.424 2H165.438C165.438 1.44772 164.99 1 164.438 1H160.451C159.899 1 159.451 1.44772 159.451 2H157.465C157.465 1.44772 157.018 1 156.465 1H152.479C151.927 1 151.479 1.44772 151.479 2H149.493C149.493 1.44772 149.045 1 148.493 1H144.507C143.955 1 143.507 1.44772 143.507 2H141.521C141.521 1.44772 141.073 1 140.521 1H136.535C135.982 1 135.535 1.44772 135.535 2H133.549C133.549 1.44772 133.101 1 132.549 1H128.563C128.01 1 127.563 1.44772 127.563 2H125.576C125.576 1.44772 125.129 1 124.576 1H120.59C120.038 1 119.59 1.44772 119.59 2H117.604C117.604 1.44772 117.156 1 116.604 1H112.618C112.066 1 111.618 1.44772 111.618 2H109.632C109.632 1.44772 109.184 1 108.632 1H104.646C104.094 1 103.646 1.44772 103.646 2H101.66C101.66 1.44772 101.212 1 100.66 1H96.6736C96.1213 1 95.6736 1.44772 95.6736 2H93.6875C93.6875 1.44772 93.2398 1 92.6875 1H88.7014C88.1491 1 87.7014 1.44772 87.7014 2H85.7153C85.7153 1.44772 85.2676 1 84.7153 1H80.7292C80.1769 1 79.7292 1.44772 79.7292 2H77.743C77.743 1.44772 77.2953 1 76.743 1H72.7569C72.2047 1 71.7569 1.44772 71.7569 2H69.7708C69.7708 1.44772 69.3231 1 68.7708 1H64.7847C64.2324 1 63.7847 1.44772 63.7847 2H61.7986C61.7986 1.44772 61.3509 1 60.7986 1H56.8125C56.2602 1 55.8125 1.44772 55.8125 2H53.8264C53.8264 1.44772 53.3787 1 52.8264 1H48.8403C48.288 1 47.8403 1.44772 47.8403 2H45.8542C45.8542 1.44772 45.4064 1 44.8542 1H40.8681C40.3158 1 39.8681 1.44772 39.8681 2H37.8819C37.8819 1.44772 37.4342 1 36.8819 1H34.8889C34.2004 1 33.5141 1.01689 32.831 1.05037C32.2794 1.07741 31.8541 1.54651 31.8812 2.09813C31.8814 2.10221 31.8816 2.10628 31.8818 2.11034C31.2082 2.15989 30.5383 2.226 29.8729 2.30834C29.8723 2.30425 29.8717 2.30015 29.8711 2.29604C29.7897 1.74979 29.2809 1.37297 28.7346 1.45438C27.3655 1.65844 26.0169 1.93003 24.6967 2.26675C24.1616 2.40325 23.8384 2.94773 23.9749 3.48288C23.976 3.48707 23.977 3.49126 23.9782 3.49543C23.3275 3.67953 22.6847 3.88003 22.051 4.0966C22.0494 4.09234 22.0479 4.08809 22.0463 4.08383C21.8536 3.56625 21.2778 3.30288 20.7603 3.49557C19.457 3.98075 18.1927 4.53382 16.9763 5.1522C16.4839 5.40248 16.2877 6.00448 16.538 6.4968C16.5402 6.50121 16.5425 6.5056 16.5448 6.50997C15.9511 6.83442 15.3705 7.17522 14.8042 7.53199C14.8013 7.52754 14.7984 7.52309 14.7954 7.51866C14.4862 7.06102 13.8646 6.94065 13.407 7.24982C12.8311 7.63888 12.2705 8.04492 11.7265 8.46759C11.255 8.83397 10.7988 9.21058 10.3585 9.59684C9.94327 9.96102 9.90191 10.5928 10.2661 11.008C10.27 11.0125 10.274 11.017 10.278 11.0214C9.92888 11.3506 9.59135 11.6862 9.26564 12.0278C9.2609 12.0235 9.25611 12.0192 9.25126 12.0149C8.83718 11.6494 8.20524 11.6889 7.83979 12.103C7.03965 13.0096 6.31541 13.9548 5.67097 14.9325C5.36704 15.3936 5.49447 16.0139 5.95561 16.3178C5.96164 16.3218 5.9677 16.3257 5.97379 16.3295C5.72793 16.7403 5.49663 17.1562 5.28015 17.5768C5.27322 17.5734 5.26624 17.5701 5.2592 17.5669C4.75701 17.3371 4.16359 17.5579 3.93375 18.0601C3.43094 19.1587 3.02223 20.2863 2.71229 21.4355C2.56847 21.9687 2.88415 22.5176 3.41738 22.6614C3.42547 22.6636 3.43356 22.6656 3.44166 22.6676C3.34088 23.1331 3.25707 23.6016 3.19052 24.0726C3.182 24.0716 3.17344 24.0707 3.16485 24.0699C2.61474 24.0209 2.12907 24.4272 2.08007 24.9773C2.02687 25.5746 2 26.1751 2 26.7778V28.7599C2 29.3122 2.44772 29.7599 3 29.7599V31.7244C2.44772 31.7244 2 32.1721 2 32.7244V36.6888C2 37.2411 2.44772 37.6888 3 37.6888V39.6533C2.44772 39.6533 2 40.101 2 40.6533V44.6177C2 45.17 2.44772 45.6177 3 45.6177V47.5822C2.44772 47.5822 2 48.0299 2 48.5822V52.5466C2 53.0989 2.44772 53.5466 3 53.5466V55.511C2.44772 55.511 2 55.9588 2 56.511V60.4755C2 61.0278 2.44772 61.4755 3 61.4755V63.44C2.44772 63.44 2 63.8877 2 64.44V68.4044C2 68.9567 2.44772 69.4044 3 69.4044V71.3688C2.44772 71.3688 2 71.8166 2 72.3688V76.3333C2 76.8856 2.44772 77.3333 3 77.3333V79.2977C2.44772 79.2977 2 79.7455 2 80.2977V84.2622C2 84.8145 2.44772 85.2622 3 85.2622V87.2266C2.44772 87.2266 2 87.6743 2 88.2266V92.1911C2 92.7434 2.44772 93.1911 3 93.1911V95.1555C2.44772 95.1555 2 95.6032 2 96.1555V100.12C2 100.672 2.44772 101.12 3 101.12V103.084C2.44772 103.084 2 103.532 2 104.084V108.049C2 108.601 2.44772 109.049 3 109.049V111.013C2.44772 111.013 2 111.461 2 112.013V115.978C2 116.53 2.44772 116.978 3 116.978V118.942C2.44772 118.942 2 119.39 2 119.942V123.907C2 124.459 2.44772 124.907 3 124.907V126.871C2.44772 126.871 2 127.319 2 127.871V131.836C2 132.388 2.44772 132.836 3 132.836V134.8C2.44772 134.8 2 135.248 2 135.8V139.764C2 140.317 2.44772 140.764 3 140.764V142.729C2.44772 142.729 2 143.177 2 143.729V147.693C2 148.246 2.44772 148.693 3 148.693V150.658C2.44772 150.658 2 151.105 2 151.658V155.622C2 156.175 2.44772 156.622 3 156.622V158.587C2.44772 158.587 2 159.034 2 159.587V163.551C2 164.103 2.44772 164.551 3 164.551V166.516C2.44772 166.516 2 166.963 2 167.516V171.48C2 172.032 2.44772 172.48 3 172.48V174.444C2.44772 174.444 2 174.892 2 175.444V179.409C2 179.961 2.44772 180.409 3 180.409V182.373C2.44772 182.373 2 182.821 2 183.373V187.338C2 187.89 2.44772 188.338 3 188.338V190.302C2.44772 190.302 2 190.75 2 191.302V195.267C2 195.819 2.44772 196.267 3 196.267V198.231C2.44772 198.231 2 198.679 2 199.231V203.196C2 203.748 2.44772 204.196 3 204.196V206.16C2.44772 206.16 2 206.608 2 207.16V211.124C2 211.677 2.44772 212.124 3 212.124V214.089C2.44772 214.089 2 214.537 2 215.089V219.053C2 219.606 2.44772 220.053 3 220.053V222.018C2.44772 222.018 2 222.465 2 223.018V225Z" stroke="#001D4A" stroke-width="2" stroke-linecap="round" stroke-linejoin="round" stroke-dasharray="4 4"/>
</g>
<path d="M48.1468 113.448C42.8988 113.448 38.5894 112.211 35.2188 109.736C31.8481 107.219 30.0347 103.635 29.7787 98.984H43.1548C43.2828 100.563 43.7521 101.715 44.5627 102.44C45.3734 103.165 46.4188 103.528 47.6988 103.528C48.8508 103.528 49.7894 103.251 50.5148 102.696C51.2828 102.099 51.6667 101.288 51.6667 100.264C51.6667 98.9413 51.0481 97.9173 49.8108 97.192C48.5734 96.4667 46.5681 95.656 43.7948 94.76C40.8507 93.7787 38.4614 92.84 36.6267 91.944C34.8347 91.0053 33.2561 89.6613 31.8907 87.912C30.5681 86.12 29.9067 83.7947 29.9067 80.936C29.9067 78.0347 30.6321 75.56 32.0827 73.512C33.5334 71.4213 35.5388 69.8427 38.0988 68.776C40.6588 67.7093 43.5601 67.176 46.8028 67.176C52.0508 67.176 56.2321 68.4133 59.3468 70.888C62.5041 73.32 64.1894 76.7547 64.4028 81.192H50.7708C50.7281 79.8267 50.3014 78.8027 49.4908 78.12C48.7228 77.4373 47.7201 77.096 46.4827 77.096C45.5441 77.096 44.7761 77.3733 44.1788 77.928C43.5814 78.4827 43.2828 79.272 43.2828 80.296C43.2828 81.1493 43.6028 81.896 44.2428 82.536C44.9254 83.1333 45.7574 83.6667 46.7388 84.136C47.7201 84.5627 49.1708 85.1173 51.0908 85.8C53.9494 86.7813 56.2961 87.7627 58.1308 88.744C60.0081 89.6827 61.6081 91.0267 62.9308 92.776C64.2961 94.4827 64.9788 96.6587 64.9788 99.304C64.9788 101.992 64.2961 104.403 62.9308 106.536C61.6081 108.669 59.6668 110.355 57.1068 111.592C54.5894 112.829 51.6028 113.448 48.1468 113.448ZM79.7063 73.768C77.4876 73.768 75.6956 73.1707 74.3303 71.976C73.0076 70.7387 72.3463 69.2027 72.3463 67.368C72.3463 65.4907 73.0076 63.9333 74.3303 62.696C75.6956 61.4587 77.4876 60.84 79.7063 60.84C81.8823 60.84 83.6316 61.4587 84.9543 62.696C86.3196 63.9333 87.0023 65.4907 87.0023 67.368C87.0023 69.2027 86.3196 70.7387 84.9543 71.976C83.6316 73.1707 81.8823 73.768 79.7063 73.768ZM85.9143 77.096V113H73.3703V77.096H85.9143ZM108.866 76.648C111.298 76.648 113.41 77.1387 115.202 78.12C117.036 79.1013 118.444 80.424 119.426 82.088V77.096H131.97V112.616C131.97 115.987 131.33 119.016 130.05 121.704C128.77 124.435 126.764 126.611 124.034 128.232C121.346 129.853 117.932 130.664 113.794 130.664C108.247 130.664 103.81 129.363 100.482 126.76C97.1538 124.157 95.2551 120.616 94.7858 116.136H107.138C107.394 117.288 108.034 118.184 109.058 118.824C110.082 119.464 111.404 119.784 113.026 119.784C117.292 119.784 119.426 117.395 119.426 112.616V108.008C118.444 109.672 117.036 110.995 115.202 111.976C113.41 112.957 111.298 113.448 108.866 113.448C106.007 113.448 103.404 112.701 101.058 111.208C98.7538 109.715 96.9191 107.581 95.5538 104.808C94.2311 101.992 93.5698 98.728 93.5698 95.016C93.5698 91.304 94.2311 88.0613 95.5538 85.288C96.9191 82.5147 98.7538 80.3813 101.058 78.888C103.404 77.3947 106.007 76.648 108.866 76.648ZM119.426 95.016C119.426 92.712 118.786 90.8987 117.506 89.576C116.268 88.2533 114.732 87.592 112.898 87.592C111.02 87.592 109.463 88.2533 108.226 89.576C106.988 90.856 106.37 92.6693 106.37 95.016C106.37 97.32 106.988 99.1547 108.226 100.52C109.463 101.843 111.02 102.504 112.898 102.504C114.732 102.504 116.268 101.843 117.506 100.52C118.786 99.1973 119.426 97.3627 119.426 95.016ZM165.166 76.776C169.304 76.776 172.59 78.1627 175.022 80.936C177.454 83.6667 178.67 87.3787 178.67 92.072V113H166.126V93.736C166.126 91.688 165.592 90.088 164.526 88.936C163.459 87.7413 162.03 87.144 160.238 87.144C158.36 87.144 156.888 87.7413 155.822 88.936C154.755 90.088 154.222 91.688 154.222 93.736V113H141.678V77.096H154.222V82.216C155.331 80.5947 156.824 79.2933 158.702 78.312C160.579 77.288 162.734 76.776 165.166 76.776ZM215.467 67.88V113H202.923V67.88H215.467ZM248.658 76.776C252.797 76.776 256.082 78.1627 258.514 80.936C260.946 83.6667 262.162 87.3787 262.162 92.072V113H249.618V93.736C249.618 91.688 249.085 90.088 248.018 88.936C246.952 87.7413 245.522 87.144 243.73 87.144C241.853 87.144 240.381 87.7413 239.314 88.936C238.248 90.088 237.714 91.688 237.714 93.736V113H225.17V77.096H237.714V82.216C238.824 80.5947 240.317 79.2933 242.194 78.312C244.072 77.288 246.226 76.776 248.658 76.776Z" fill="#1162E0"/>
<defs>
<filter id="filter0_b_80_4" x="-3" y="-4" width="299" height="235" filterUnits="userSpaceOnUse" color-interpolation-filters="sRGB">
<feFlood flood-opacity="0" result="BackgroundImageFix"/>
<feGaussianBlur in="BackgroundImageFix" stdDeviation="2"/>
<feComposite in2="SourceAlpha" operator="in" result="effect1_backgroundBlur_80_4"/>
<feBlend mode="normal" in="SourceGraphic" in2="effect1_backgroundBlur_80_4" result="shape"/>
</filter>
</defs>
</svg>
